<?xml version="1.0" encoding="utf-8"?>
<!-- Generator: Adobe Illustrator 23.0.2, SVG Export Plug-In . SVG Version: 6.00 Build 0)  -->
<svg version="1.1" id="Lag_1" xmlns="http://www.w3.org/2000/svg" xmlns:xlink="http://www.w3.org/1999/xlink" x="0px" y="0px"
	 viewBox="0 0 64 64" style="enable-background:new 0 0 64 64;" xml:space="preserve">
<style type="text/css">
	.st0{fill:#FFFFFF;}
</style>
<title></title>
<path class="st0" d="M44,56H20c-6.6,0-12-5.4-12-12V20c0-6.6,5.4-12,12-12h24c6.6,0,12,5.4,12,12v24C56,50.6,50.6,56,44,56z
	 M20,12.8c-4,0-7.2,3.2-7.2,7.2v24c0,4,3.2,7.2,7.2,7.2h24c4,0,7.2-3.2,7.2-7.2V20c0-4-3.2-7.2-7.2-7.2H20z"/>
<path class="st0" d="M32,45.6c-7.5,0-13.6-6.1-13.6-13.6c0-7.5,6.1-13.6,13.6-13.6c7.5,0,13.6,6.1,13.6,13.6c0,0,0,0,0,0
	C45.6,39.5,39.5,45.6,32,45.6z M32,23.2c-4.9,0-8.8,3.9-8.8,8.8s3.9,8.8,8.8,8.8s8.8-3.9,8.8-8.8C40.8,27.1,36.9,23.2,32,23.2z"/>
<circle class="st0" cx="45.6" cy="19.2" r="2.4"/>
</svg>
